<?xml version="1.0" encoding="UTF-8" standalone="no"?>
<!DOCTYPE svg PUBLIC "-//W3C//DTD SVG 1.1//EN"
 "http://www.w3.org/Graphics/SVG/1.1/DTD/svg11.dtd">
<!-- Generated by graphviz version 2.47.0 (20210316.0004)
 -->
<!-- Title: dependencies Pages: 1 -->
<svg width="967pt" height="287pt"
 viewBox="0.00 0.00 967.00 287.00" xmlns="http://www.w3.org/2000/svg" xmlns:xlink="http://www.w3.org/1999/xlink">
<g id="graph0" class="graph" transform="scale(1 1) rotate(0) translate(4 283)">
<title>dependencies</title>
<polygon fill="white" stroke="transparent" points="-4,4 -4,-283 963,-283 963,4 -4,4"/>
<text text-anchor="start" x="458.51" y="-42.4" font-family="Times-12" font-weight="bold" font-size="14.00">Legend</text>
<polygon fill="#ffffb3" stroke="transparent" points="245.5,-10 245.5,-30 265.5,-30 265.5,-10 245.5,-10"/>
<text text-anchor="start" x="269.13" y="-15.4" font-family="Times-12" font-size="14.00"> &#160;Declarations</text>
<polygon fill="#8dd3c7" stroke="transparent" points="358.5,-10 358.5,-30 378.5,-30 378.5,-10 358.5,-10"/>
<text text-anchor="start" x="382.23" y="-15.4" font-family="Times-12" font-size="14.00"> &#160;Module</text>
<polygon fill="#80b1d3" stroke="transparent" points="444.5,-10 444.5,-30 464.5,-30 464.5,-10 444.5,-10"/>
<text text-anchor="start" x="468.28" y="-15.4" font-family="Times-12" font-size="14.00"> &#160;Bootstrap</text>
<polygon fill="#fdb462" stroke="transparent" points="541.5,-10 541.5,-30 561.5,-30 561.5,-10 541.5,-10"/>
<text text-anchor="start" x="565.17" y="-15.4" font-family="Times-12" font-size="14.00"> &#160;Providers</text>
<polygon fill="#fb8072" stroke="transparent" points="637.5,-10 637.5,-30 657.5,-30 657.5,-10 637.5,-10"/>
<text text-anchor="start" x="661.23" y="-15.4" font-family="Times-12" font-size="14.00"> &#160;Exports</text>
<g id="clust1" class="cluster">
<title>cluster_AppModule</title>
<polygon fill="none" stroke="black" stroke-dasharray="1,5" points="168,-70 168,-271 397,-271 397,-70 168,-70"/>
</g>
<g id="clust3" class="cluster">
<title>cluster_AppModule_imports</title>
<polygon fill="none" stroke="black" points="176,-78 176,-206 389,-206 389,-78 176,-78"/>
</g>
<g id="clust13" class="cluster">
<title>cluster_PostsModule</title>
<polygon fill="none" stroke="black" stroke-dasharray="1,5" points="8,-70 8,-138 160,-138 160,-70 8,-70"/>
</g>
<g id="clust18" class="cluster">
<title>cluster_PostsModule_providers</title>
<polygon fill="none" stroke="black" points="16,-78 16,-130 152,-130 152,-78 16,-78"/>
</g>
<g id="clust19" class="cluster">
<title>cluster_UsersModule</title>
<polygon fill="none" stroke="black" stroke-dasharray="1,5" points="677,-146 677,-214 951,-214 951,-146 677,-146"/>
</g>
<g id="clust22" class="cluster">
<title>cluster_UsersModule_exports</title>
<polygon fill="none" stroke="black" points="833,-154 833,-206 943,-206 943,-154 833,-154"/>
</g>
<g id="clust24" class="cluster">
<title>cluster_UsersModule_providers</title>
<polygon fill="none" stroke="black" points="685,-154 685,-206 825,-206 825,-154 685,-154"/>
</g>
<g id="clust7" class="cluster">
<title>cluster_AuthModule</title>
<polygon fill="none" stroke="black" stroke-dasharray="1,5" points="405,-146 405,-214 669,-214 669,-146 405,-146"/>
</g>
<g id="clust12" class="cluster">
<title>cluster_AuthModule_providers</title>
<polygon fill="none" stroke="black" points="527,-154 527,-206 661,-206 661,-154 527,-154"/>
</g>
<g id="clust10" class="cluster">
<title>cluster_AuthModule_exports</title>
<polygon fill="none" stroke="black" points="413,-154 413,-206 519,-206 519,-154 413,-154"/>
</g>
<!-- AuthModule -->
<g id="node1" class="node">
<title>AuthModule</title>
<polygon fill="#8dd3c7" stroke="black" points="271.55,-122 268.55,-126 247.55,-126 244.55,-122 184.45,-122 184.45,-86 271.55,-86 271.55,-122"/>
<text text-anchor="middle" x="228" y="-99.8" font-family="Times,serif" font-size="14.00">AuthModule</text>
</g>
<!-- AppModule -->
<g id="node4" class="node">
<title>AppModule</title>
<polygon fill="#8dd3c7" stroke="black" points="345.66,-263 342.66,-267 321.66,-267 318.66,-263 262.34,-263 262.34,-227 345.66,-227 345.66,-263"/>
<text text-anchor="middle" x="304" y="-240.8" font-family="Times,serif" font-size="14.00">AppModule</text>
</g>
<!-- AuthModule&#45;&gt;AppModule -->
<g id="edge1" class="edge">
<title>AuthModule&#45;&gt;AppModule</title>
<path fill="none" stroke="black" d="M189.84,-122.14C189.84,-160.23 189.84,-245 189.84,-245 189.84,-245 252.14,-245 252.14,-245"/>
<polygon fill="black" stroke="black" points="252.14,-248.5 262.14,-245 252.14,-241.5 252.14,-248.5"/>
</g>
<!-- AuthService  -->
<g id="node5" class="node">
<title>AuthService </title>
<polygon fill="#fb8072" stroke="black" points="510.98,-198 421.02,-198 421.02,-162 510.98,-162 510.98,-198"/>
<text text-anchor="middle" x="466" y="-175.8" font-family="Times,serif" font-size="14.00">AuthService </text>
</g>
<!-- AuthModule&#45;&gt;AuthService  -->
<g id="edge4" class="edge">
<title>AuthModule&#45;&gt;AuthService </title>
<path fill="none" stroke="black" stroke-dasharray="5,2" d="M246.33,-122.04C246.33,-134.56 246.33,-149 246.33,-149 246.33,-149 466,-149 466,-149 466,-149 466,-151.97 466,-151.97"/>
<polygon fill="black" stroke="black" points="462.5,-151.97 466,-161.97 469.5,-151.97 462.5,-151.97"/>
</g>
<!-- PostsModule -->
<g id="node2" class="node">
<title>PostsModule</title>
<polygon fill="#8dd3c7" stroke="black" points="284.61,-198 281.61,-202 260.61,-202 257.61,-198 195.39,-198 195.39,-162 284.61,-162 284.61,-198"/>
<text text-anchor="middle" x="240" y="-175.8" font-family="Times,serif" font-size="14.00">PostsModule</text>
</g>
<!-- PostsModule&#45;&gt;AppModule -->
<g id="edge2" class="edge">
<title>PostsModule&#45;&gt;AppModule</title>
<path fill="none" stroke="black" d="M273.36,-198.11C273.36,-198.11 273.36,-216.99 273.36,-216.99"/>
<polygon fill="black" stroke="black" points="269.86,-216.99 273.36,-226.99 276.86,-216.99 269.86,-216.99"/>
</g>
<!-- UsersModule -->
<g id="node3" class="node">
<title>UsersModule</title>
<polygon fill="#8dd3c7" stroke="black" points="380.92,-122 377.92,-126 356.92,-126 353.92,-122 289.08,-122 289.08,-86 380.92,-86 380.92,-122"/>
<text text-anchor="middle" x="335" y="-99.8" font-family="Times,serif" font-size="14.00">UsersModule</text>
</g>
<!-- UsersModule&#45;&gt;PostsModule -->
<g id="edge6" class="edge">
<title>UsersModule&#45;&gt;PostsModule</title>
<path fill="none" stroke="black" d="M289.12,-104C282.66,-104 278.16,-104 278.16,-104 278.16,-104 278.16,-151.99 278.16,-151.99"/>
<polygon fill="black" stroke="black" points="274.66,-151.99 278.16,-161.99 281.66,-151.99 274.66,-151.99"/>
</g>
<!-- UsersModule&#45;&gt;AppModule -->
<g id="edge3" class="edge">
<title>UsersModule&#45;&gt;AppModule</title>
<path fill="none" stroke="black" d="M317.56,-122.14C317.56,-122.14 317.56,-216.93 317.56,-216.93"/>
<polygon fill="black" stroke="black" points="314.06,-216.92 317.56,-226.93 321.06,-216.93 314.06,-216.92"/>
</g>
<!-- UsersService  -->
<g id="node8" class="node">
<title>UsersService </title>
<polygon fill="#fb8072" stroke="black" points="934.85,-198 841.15,-198 841.15,-162 934.85,-162 934.85,-198"/>
<text text-anchor="middle" x="888" y="-175.8" font-family="Times,serif" font-size="14.00">UsersService </text>
</g>
<!-- UsersModule&#45;&gt;UsersService  -->
<g id="edge8" class="edge">
<title>UsersModule&#45;&gt;UsersService </title>
<path fill="none" stroke="black" stroke-dasharray="5,2" d="M380.72,-98C513.22,-98 888,-98 888,-98 888,-98 888,-151.8 888,-151.8"/>
<polygon fill="black" stroke="black" points="884.5,-151.8 888,-161.8 891.5,-151.8 884.5,-151.8"/>
</g>
<!-- AuthService -->
<g id="node6" class="node">
<title>AuthService</title>
<ellipse fill="#fdb462" stroke="black" cx="594" cy="-180" rx="59.11" ry="18"/>
<text text-anchor="middle" x="594" y="-175.8" font-family="Times,serif" font-size="14.00">AuthService</text>
</g>
<!-- AuthService&#45;&gt;AuthModule -->
<g id="edge5" class="edge">
<title>AuthService&#45;&gt;AuthModule</title>
<path fill="none" stroke="black" d="M594,-161.85C594,-149.73 594,-136 594,-136 594,-136 220.89,-136 220.89,-136 220.89,-136 220.89,-132.24 220.89,-132.24"/>
<polygon fill="black" stroke="black" points="224.39,-132.24 220.89,-122.24 217.39,-132.24 224.39,-132.24"/>
</g>
<!-- PostsService -->
<g id="node7" class="node">
<title>PostsService</title>
<ellipse fill="#fdb462" stroke="black" cx="84" cy="-104" rx="60.27" ry="18"/>
<text text-anchor="middle" x="84" y="-99.8" font-family="Times,serif" font-size="14.00">PostsService</text>
</g>
<!-- PostsService&#45;&gt;PostsModule -->
<g id="edge7" class="edge">
<title>PostsService&#45;&gt;PostsModule</title>
<path fill="none" stroke="black" d="M84,-122.01C84,-144.49 84,-180 84,-180 84,-180 185.3,-180 185.3,-180"/>
<polygon fill="black" stroke="black" points="185.3,-183.5 195.3,-180 185.3,-176.5 185.3,-183.5"/>
</g>
<!-- UsersService -->
<g id="node9" class="node">
<title>UsersService</title>
<ellipse fill="#fdb462" stroke="black" cx="755" cy="-180" rx="61.95" ry="18"/>
<text text-anchor="middle" x="755" y="-175.8" font-family="Times,serif" font-size="14.00">UsersService</text>
</g>
<!-- UsersService&#45;&gt;UsersModule -->
<g id="edge9" class="edge">
<title>UsersService&#45;&gt;UsersModule</title>
<path fill="none" stroke="black" d="M755,-161.97C755,-141.23 755,-110 755,-110 755,-110 390.75,-110 390.75,-110"/>
<polygon fill="black" stroke="black" points="390.75,-106.5 380.75,-110 390.75,-113.5 390.75,-106.5"/>
</g>
</g>
</svg>
